PathFileType	4	(X/Y/Z)	..\data\2014014\dynamic\2014014_C4_04.trc
DataRate	CameraRate	NumFrames	NumMarkers	Units	OrigDataRate	OrigDataStartFrame	OrigNumFrames
100.000000	100.000000	4	48	mm	100.000000	89	178
Frame#	Time	L_IAS			L_IPS			R_IPS			R_IAS			L_FTC			L_FLE			L_FME			L_FAX			L_TTC			L_FAL			L_TAM			L_FCC			L_FM1			L_FM2			L_FM5			R_FTC			R_FLE			R_FME			R_FAX			R_TTC			R_FAL			R_TAM			R_FCC			R_FM1			R_FM2			R_FM5			CV7			TV10			SXS			SJN			L_SAA			L_SAE			L_HLE			L_HME			L_UOA			L_RSP			L_UHE			L_HM2			L_HM5			R_SAA			R_SAE			R_HLE			R_HME			R_UOA			R_RSP			R_UHE			R_HM2			R_HM5			
		X1	Y1	Z1	X2	Y2	Z2	X3	Y3	Z3	X4	Y4	Z4	X5	Y5	Z5	X6	Y6	Z6	X7	Y7	Z7	X8	Y8	Z8	X9	Y9	Z9	X10	Y10	Z10	X11	Y11	Z11	X12	Y12	Z12	X13	Y13	Z13	X14	Y14	Z14	X15	Y15	Z15	X16	Y16	Z16	X17	Y17	Z17	X18	Y18	Z18	X19	Y19	Z19	X20	Y20	Z20	X21	Y21	Z21	X22	Y22	Z22	X23	Y23	Z23	X24	Y24	Z24	X25	Y25	Z25	X26	Y26	Z26	X27	Y27	Z27	X28	Y28	Z28	X29	Y29	Z29	X30	Y30	Z30	X31	Y31	Z31	X32	Y32	Z32	X33	Y33	Z33	X34	Y34	Z34	X35	Y35	Z35	X36	Y36	Z36	X37	Y37	Z37	X38	Y38	Z38	X39	Y39	Z39	X40	Y40	Z40	X41	Y41	Z41	X42	Y42	Z42	X43	Y43	Z43	X44	Y44	Z44	X45	Y45	Z45	X46	Y46	Z46	X47	Y47	Z47	X48	Y48	Z48	

90	0.89	915.2237548828127	1002.180786132813	-119.7296566040048	709.2048950195314	1019.757873535156	-28.94627714519412	711.5371093750001	1018.4482421875	68.94627714519412	915.6294555664065	1002.249633789063	159.7296566040048	839.6381835937502	904.9760742187502	-168.8364664171059	942.1596679687502	517.1599731445314	-132.8068082918402	969.4320068359377	500.4640197753907	4.73616952572034	898.0271606445315	477.255096435547	-127.5034208841393	960.114685058594	426.9678955078126	-68.54266881243612	649.3901367187501	213.2663269042969	-119.3286701318263	707.7427368164064	214.0673828125001	-17.89666597850206	594.3900756835939	204.9417266845704	-63.35014095580774	745.3334960937501	75.19787597656251	-34.67283560363096	749.0314331054689	88.0415496826172	-75.85478284948589	688.5880126953126	104.1204528808594	-136.6788472364645	848.5169067382815	897.9125976562502	201.77977018891	827.9453125000002	487.0337524414064	168.1761551397474	854.5541992187502	497.1324157714845	39.89448362637252	807.5109863281252	433.8825073242189	167.9111784980278	876.1487426757815	425.9194641113282	108.8162272066081	772.6818847656252	62.40700912475587	159.7178475624646	805.096130371094	91.62584686279298	58.05492402872793	734.5734863281251	22.4110164642334	103.5203760469626	940.683288574219	20.4810848236084	74.31989194537282	943.9200439453127	38.12075424194337	116.2531535677032	895.8533935546877	18.32588958740235	178.1868656505937	771.1368408203127	1545.3310546875	22.33197663849248	671.4659423828126	1301.443115234375	22.33197663849248	942.7710571289065	1266.175170898438	22.33197663849248	894.0586547851565	1447.431762695313	22.23227489079067	739.4014892578126	1478.243041992188	-219.6455385149378	791.1074218750002	1471.984985351563	-176.1371861577316	777.140319824219	1131.895874023438	-258.8717543254914	737.1801757812501	1123.102294921875	-174.535390332801	736.6124877929689	1112.34423828125	-210.2361499973812	866.153015136719	875.779479980469	-239.5967179865834	798.9033203125002	876.3052978515627	-265.4190523397495	894.3579101562502	791.0906372070315	-244.7565623451693	793.4014892578127	792.3703613281252	-246.8581665756566	760.1660766601564	1447.237670898438	259.6455385149378	807.821716308594	1438.273681640625	216.1373355492392	818.3782958984377	1096.98046875	304.6079114146845	794.2270507812502	1081.105590820313	207.9388096802291	778.2241821289065	1074.32861328125	248.860189315611	935.1724243164065	854.855407714844	279.4189228109762	871.6978759765627	851.820007324219	306.295032088454	978.2449951171877	768.9729003906252	285.0291244398524	874.5372314453127	753.2451171875001	287.1250341336798	
91	0.9	925.6018066406252	1003.383239746094	-119.7296566040048	719.0621948242189	1020.500854492188	-28.94627714519412	720.9509277343751	1018.62744140625	68.94627714519412	924.6914062500002	1001.962951660156	159.7296566040048	851.6760864257815	907.0031738281252	-168.8364664171059	959.716735839844	519.9014282226564	-132.8068082918402	986.582214355469	504.1100463867189	4.73616952572034	916.697937011719	478.5113220214845	-127.5034208841393	980.3008422851565	430.1374511718751	-68.54266881243612	677.1188964843751	205.1337127685547	-119.3286701318263	734.9055175781251	208.0359649658204	-17.89666597850206	622.3148193359376	193.7288970947266	-63.35014095580774	779.2620239257815	72.04825592041017	-34.67283560363096	782.5859985351565	85.62969970703126	-75.85478284948589	721.6711425781251	98.45251464843753	-136.6788472364645	856.4106445312502	897.101989746094	201.77977018891	831.047546386719	486.998260498047	168.1761551397474	857.7749633789065	496.5872497558595	39.89448362637252	810.1342773437502	433.9984130859376	167.9111784980278	878.7290039062502	425.3648071289064	108.8162272066081	772.7740478515627	62.69624710083009	159.7178475624646	805.442810058594	91.68878173828126	58.05492402872793	734.7318725585939	22.54440307617188	103.5203760469626	940.759704589844	20.4568042755127	74.31989194537282	943.9429321289065	38.11052703857423	116.2531535677032	895.777770996094	18.37686538696289	178.1868656505937	781.6099243164065	1545.570434570313	22.33197663849248	681.7400512695314	1301.797973632813	22.33197663849248	953.0288085937502	1266.311279296875	22.33197663849248	904.470153808594	1447.621948242188	22.23227489079067	749.1770019531251	1478.182983398438	-219.6455385149378	800.794128417969	1471.838623046875	-176.1371861577316	783.493835449219	1131.791381835938	-258.8717543254914	744.3784179687501	1123.493286132813	-174.535390332801	742.9426269531251	1112.920043945313	-210.2361499973812	869.0012817382815	874.5230102539065	-239.5967179865834	801.247009277344	876.1345214843752	-265.4190523397495	895.6800537109377	789.3093261718752	-244.7565623451693	794.4926757812502	792.371520996094	-246.8581665756566	770.859069824219	1448.035278320313	259.6455385149378	818.687194824219	1439.13037109375	216.1373355492392	832.033142089844	1098.092041015625	304.6079114146845	807.3485107421877	1081.827026367188	207.9388096802291	791.839782714844	1075.00439453125	248.860189315611	950.8922119140627	857.0925292968752	279.4189228109762	887.883972167969	853.4871215820315	306.295032088454	995.156188964844	771.8515625000002	285.0291244398524	891.753601074219	755.1314697265626	287.1250341336798	
92	0.91	935.9185180664065	1004.328857421875	-119.7296566040048	728.8906250000001	1021.067993164063	-28.94627714519412	730.3577270507814	1018.691223144531	68.94627714519412	933.7844848632815	1001.501831054688	159.7296566040048	863.6596679687502	908.8007812500002	-168.8364664171059	976.7653808593752	522.2766723632814	-132.8068082918402	1003.029418945313	507.4640502929689	4.73616952572034	934.9560546875002	479.2401123046876	-127.5034208841393	1000.079650878906	433.0421142578126	-68.54266881243612	705.5357666015626	196.0091247558594	-119.3286701318263	762.7072753906251	201.1497192382813	-17.89666597850206	651.1806030273439	181.487289428711	-63.35014095580774	813.895202636719	68.45439910888673	-34.67283560363096	816.7202758789065	82.56936645507814	-75.85478284948589	755.4316406250001	92.04919433593751	-136.6788472364645	864.3162231445315	896.227722167969	201.77977018891	834.313171386719	486.9413146972657	168.1761551397474	861.0850219726565	496.003387451172	39.89448362637252	812.8796997070315	434.075408935547	167.9111784980278	881.4167480468752	424.7524414062501	108.8162272066081	772.8867187500002	62.99644470214845	159.7178475624646	805.8320312500002	91.76781463623048	58.05492402872793	734.9133911132814	22.70790672302246	103.5203760469626	940.8405761718752	20.46271705627442	74.31989194537282	943.966979980469	38.12516403198243	116.2531535677032	895.703308105469	18.44740676879883	178.1868656505937	792.0891113281252	1545.65478515625	22.33197663849248	692.0150756835939	1302.014526367188	22.33197663849248	963.3264770507815	1266.31103515625	22.33197663849248	914.8918457031252	1447.6689453125	22.23227489079067	759.0124511718751	1477.91357421875	-219.6455385149378	810.5219726562502	1471.495971679688	-176.1371861577316	789.807800292969	1131.533325195313	-258.8717543254914	751.5747680664064	1123.723999023438	-174.535390332801	749.2634887695314	1113.327758789063	-210.2361499973812	872.0192871093752	873.236999511719	-239.5967179865834	803.6873168945315	875.854431152344	-265.4190523397495	897.1890258789065	787.5400390625002	-244.7565623451693	795.726013183594	792.2657470703127	-246.8581665756566	781.5136718750002	1448.678344726563	259.6455385149378	829.4929199218752	1439.873413085938	216.1373355492392	845.5513916015627	1099.088623046875	304.6079114146845	820.4625244140627	1082.455078125	207.9388096802291	805.3763427734377	1075.557983398438	248.860189315611	966.5769042968752	859.3020019531252	279.4189228109762	904.0091552734377	855.0993652343752	306.295032088454	1011.992492675781	774.6524047851565	285.0291244398524	908.9480590820315	756.9739379882814	287.1250341336798	
93	0.92	946.1636352539065	1005.001708984375	-119.7296566040048	738.6921386718751	1021.449157714844	-28.94627714519412	739.7779541015626	1018.641662597656	68.94627714519412	942.926452636719	1000.85107421875	159.7296566040048	875.538269042969	910.3339843750002	-168.8364664171059	993.260681152344	524.2407836914064	-132.8068082918402	1018.729370117188	510.4682617187501	4.73616952572034	952.7595214843752	479.4166564941407	-127.5034208841393	1019.390869140625	435.6528930664064	-68.54266881243612	734.6845092773439	186.0498504638672	-119.3286701318263	791.2261962890627	193.5282287597657	-17.89666597850206	681.0368652343751	168.3965454101563	-63.35014095580774	849.2468261718752	64.49764251708986	-34.67283560363096	851.4146118164065	78.98877716064455	-75.85478284948589	789.8424072265627	85.1077117919922	-136.6788472364645	872.2585449218752	895.2960205078127	201.77977018891	837.7432250976565	486.8594360351564	168.1761551397474	864.492126464844	495.3921813964845	39.89448362637252	815.756042480469	434.1167297363282	167.9111784980278	884.2178955078127	424.0831604003907	108.8162272066081	773.0135498046877	63.30285263061525	159.7178475624646	806.2626953125002	91.86000061035158	58.05492402872793	735.1061401367189	22.9036979675293	103.5203760469626	940.9285278320315	20.49179840087891	74.31989194537282	943.9937744140627	38.15235137939454	116.2531535677032	895.6294555664065	18.52762031555176	178.1868656505937	802.5878906250002	1545.580322265625	22.33197663849248	702.2952880859376	1302.09326171875	22.33197663849248	973.670104980469	1266.1650390625	22.33197663849248	925.331481933594	1447.558349609375	22.23227489079067	768.915954589844	1477.428955078125	-219.6455385149378	820.2905273437502	1470.951538085938	-176.1371861577316	796.1231079101565	1131.11962890625	-258.8717543254914	758.7819824218751	1123.784423828125	-174.535390332801	755.6174316406251	1113.55712890625	-210.2361499973812	875.2255859375002	871.895935058594	-239.5967179865834	806.260437011719	875.453063964844	-265.4190523397495	898.9077148437502	785.7600097656252	-244.7565623451693	797.125671386719	792.0346679687502	-246.8581665756566	792.1685180664065	1449.158813476563	259.6455385149378	840.2739868164065	1440.482788085938	216.1373355492392	858.9273681640627	1099.94140625	304.6079114146845	833.5347290039065	1082.957153320313	207.9388096802291	818.8192138671877	1075.961547851563	248.860189315611	982.225036621094	861.4532470703127	279.4189228109762	920.059997558594	856.6234130859377	306.295032088454	1028.756958007813	777.3587646484377	285.0291244398524	926.1135253906252	758.7225341796876	287.1250341336798	
